# xmcd CD database file
#
# Track frame offsets:
#	150
#	17075
#	31242
#	44500
#	59197
#	71340
#	86590
#	101230
#	115427
#	127995
#	139915
#	150862
#
# Disc length: 2202 seconds
#
# Revision: 1
# Processed by: cddbd v1.5.2PL0 Copyright (c) Steve Scherf et al.
# Submitted via: CDex 1.78
#
DISCID=a408980c
DTITLE=Chris Isaak - Silvertone
DYEAR=1987
DGENRE=Blues
TTITLE0=Dancin'
TTITLE1=Talk To Me
TTITLE2=Livin' For Your Lover
TTITLE3=Back On Your Side
TTITLE4=Voodoo
TTITLE5=Funeral In The Rain
TTITLE6=The Lonely Ones
TTITLE7=Unhappiness
TTITLE8=Tears
TTITLE9=Gone Ridin'
TTITLE10=Pretty Girls Don't Cry
TTITLE11=Western Stars
EXTD=YEAR: 1987
EXTT0=
EXTT1=
EXTT2=
EXTT3=
EXTT4=
EXTT5=
EXTT6=
EXTT7=
EXTT8=
EXTT9=
EXTT10=
EXTT11=
PLAYORDER=
